Coordinates
version=1
nRows=65
nColumns=12
inDegrees=yes

Units are S.I. units (second, meters, Newtons, ...)
Angles are in degrees

endheader
time	SC_y	SC_z	SC_x	AC_y	AC_z	AC_x	GH_y	GH_z	GH_yy	EL_x	PS_y
       0.0              -54.63          7.055          60.74          61.56          -13.5          15.33         -3.086          43.51           60.6          70.26          75.14
   0.03242              -54.63          7.057          60.74          61.56          -13.5          15.32         -3.091          43.52           60.6          70.25          75.14
   0.06484              -54.63          7.059          60.74          61.56         -13.49          15.32         -3.097          43.53          60.59          70.24          75.15
   0.09727              -54.63          7.062          60.74          61.56         -13.49          15.31         -3.103          43.53          60.58          70.24          75.15
    0.1297              -54.63          7.064          60.73          61.56         -13.49          15.31          -3.11          43.54          60.58          70.23          75.16
    0.1621              -54.63          7.067          60.73          61.56         -13.48           15.3         -3.117          43.55          60.57          70.22          75.16
    0.1945              -54.63          7.069          60.73          61.56         -13.48           15.3         -3.124          43.56          60.56          70.21          75.17
     0.227              -54.63          7.072          60.73          61.56         -13.48          15.29         -3.132          43.57          60.55           70.2          75.18
    0.2594              -54.63          7.076          60.72          61.56         -13.47          15.29         -3.141          43.58          60.54          70.19          75.19
    0.2918              -54.62          7.079          60.72          61.55         -13.47          15.28          -3.15          43.59          60.53          70.18          75.19
    0.3242              -54.62          7.083          60.72          61.55         -13.46          15.27          -3.16           43.6          60.52          70.17           75.2
    0.3566              -54.62          7.087          60.71          61.55         -13.46          15.26         -3.171          43.62          60.51          70.15          75.21
    0.3891              -54.62          7.091          60.71          61.55         -13.45          15.26         -3.182          43.63           60.5          70.14          75.22
    0.4215              -54.62          7.095          60.71          61.55         -13.45          15.25         -3.195          43.65          60.48          70.12          75.23
    0.4539              -54.62            7.1           60.7          61.55         -13.44          15.24         -3.208          43.66          60.47          70.11          75.25
    0.4863              -54.61          7.106           60.7          61.55         -13.43          15.23         -3.222          43.68          60.45          70.09          75.26
    0.5188              -54.61          7.112          60.69          61.55         -13.43          15.21         -3.238           43.7          60.43          70.07          75.27
    0.5512              -54.61          7.118          60.69          61.55         -13.42           15.2         -3.256          43.72          60.42          70.05          75.29
    0.5836              -54.61          7.125          60.68          61.54         -13.41          15.19         -3.274          43.74          60.39          70.02           75.3
     0.616               -54.6          7.132          60.67          61.54          -13.4          15.17         -3.295          43.77          60.37           70.0          75.32
    0.6484               -54.6          7.141          60.67          61.54         -13.39          15.16         -3.318          43.79          60.35          69.97          75.34
    0.6809               -54.6           7.15          60.66          61.54         -13.38          15.14         -3.342          43.82          60.32          69.94          75.37
    0.7133              -54.59           7.16          60.65          61.54         -13.36          15.12          -3.37          43.86          60.29           69.9          75.39
    0.7457              -54.59          7.171          60.64          61.53         -13.35           15.1           -3.4          43.89          60.26          69.86          75.42
    0.7781              -54.59          7.184          60.63          61.53         -13.33          15.07         -3.434          43.93          60.22          69.82          75.45
    0.8106              -54.58          7.198          60.61          61.53         -13.31          15.04         -3.472          43.98          60.18          69.77          75.48
     0.843              -54.58          7.213           60.6          61.52         -13.29          15.01         -3.514          44.03          60.13          69.72          75.52
    0.8754              -54.57          7.231          60.59          61.52         -13.27          14.98         -3.562          44.09          60.08          69.66          75.56
    0.9078              -54.56          7.251          60.57          61.52         -13.24          14.94         -3.616          44.15          60.02          69.59          75.61
    0.9402              -54.55          7.273          60.55          61.51         -13.21          14.89         -3.677          44.23          59.95          69.52          75.67
    0.9727              -54.54          7.299          60.52           61.5         -13.18          14.84         -3.747          44.31          59.88          69.43          75.73
     1.005              -54.53          7.328           60.5           61.5         -13.14          14.78         -3.827          44.41          59.79          69.33           75.8
     1.038              -54.52          7.362          60.47          61.49          -13.1          14.71         -3.919          44.52          59.69          69.21          75.88
      1.07              -54.51          7.402          60.43          61.48         -13.04          14.64         -4.026          44.65          59.57          69.08          75.98
     1.102              -54.49          7.448          60.39          61.47         -12.98          14.54         -4.152           44.8          59.43          68.92          76.09
     1.135              -54.47          7.503          60.34          61.46         -12.91          14.44           -4.3          44.98          59.27          68.74          76.22
     1.167              -54.45          7.568          60.29          61.44         -12.83          14.31         -4.476          45.19          59.08          68.52          76.38
       1.2              -54.42          7.645          60.22          61.43         -12.72          14.15         -4.687          45.45          58.84          68.25          76.57
     1.232              -54.38          7.739          60.13           61.4          -12.6          13.96         -4.942          45.76          58.56          67.93           76.8
     1.264              -54.34          7.854          60.03          61.38         -12.45          13.74         -5.254          46.13          58.22          67.54          77.08
     1.297              -54.29          7.996           59.9          61.35         -12.26          13.45         -5.639           46.6           57.8          67.06          77.43
     1.329              -54.23          8.173          59.75          61.31         -12.03           13.1         -6.118          47.18          57.27          66.46          77.86
     1.362              -54.14          8.396          59.55          61.26         -11.74          12.66         -6.723          47.91          56.61           65.7           78.4
     1.394              -54.04          8.679           59.3          61.19         -11.37           12.1         -7.491          48.84          55.77          64.74          79.09
     1.427              -53.91          9.041          58.97          61.11         -10.89          11.37         -8.474          50.02          54.69          63.51          79.97
     1.459              -53.74          9.506          58.56           61.0         -10.28          10.45         -9.736          51.55           53.3          61.93           81.1
     1.491              -53.52           10.1          58.03          60.87         -9.497          9.268         -11.35           53.5          51.53          59.91          82.55
     1.524              -53.25          10.85          57.37           60.7         -8.515          7.782         -13.37          55.94          49.31          57.37          84.36
     1.556              -52.92          11.76          56.56          60.49         -7.319          5.971         -15.84          58.93           46.6          54.27          86.58
     1.589              -52.54          12.81          55.62          60.25         -5.932          3.872         -18.71          62.39          43.45          50.68          89.15
     1.621              -52.12          13.96           54.6          59.99          -4.43          1.599         -21.81          66.13          40.05           46.8          91.93
     1.654              -51.71           15.1          53.58          59.74         -2.929        -0.6743         -24.91          69.88          36.65          42.92          94.71
     1.686              -51.32          16.15          52.65           59.5         -1.542         -2.773         -27.77          73.34           33.5          39.33          97.28
     1.718              -50.99          17.06          51.84          59.29        -0.3453         -4.584         -30.24          76.32          30.79          36.23          99.49
     1.751              -50.72          17.81          51.17          59.12         0.6366          -6.07         -32.27          78.77          28.57          33.69          101.3
     1.783               -50.5           18.4          50.64          58.98          1.417         -7.252         -33.88          80.72           26.8          31.68          102.8
     1.816              -50.33          18.87          50.23          58.88          2.029         -8.178         -35.14          82.24          25.41          30.09          103.9
     1.848               -50.2          19.23          49.91           58.8          2.505         -8.899         -36.12          83.43          24.33          28.86          104.8
      1.88               -50.1          19.51          49.65          58.73          2.877         -9.462         -36.89          84.36          23.49           27.9          105.5
     1.913              -50.02          19.74          49.46          58.68           3.17         -9.905          -37.5          85.09          22.83          27.14          106.0
     1.945              -49.95          19.91           49.3          58.64          3.402         -10.26         -37.98          85.67           22.3          26.54          106.4
     1.978               -49.9          20.06          49.17          58.61          3.589         -10.54         -38.36          86.13          21.88          26.06          106.8
      2.01              -49.86          20.17          49.07          58.58           3.74         -10.77         -38.67          86.51          21.54          25.67          107.1
     2.043              -49.83          20.26          48.99          58.56          3.863         -10.95         -38.93          86.82          21.26          25.35          107.3
     2.075               -49.8          20.34          48.92          58.54          3.966         -11.11         -39.14          87.07          21.02          25.08          107.5
